<svg width="24" height="24" viewBox="0 0 24 24" xmlns="http://www.w3.org/2000/svg" preserveAspectRatio="xMinYMid meet"><g><path d="M7.8 5.1c0-2.2-3.3-2.2-3.4 0 0 .9.8 1.7 1.7 1.7.9 0 1.7-.7 1.7-1.7zm.6 5.4l.6-.6s0-.1.1-.2h-2v-.2c0-.7.6-1.1 1.2-1.3.4-.2.9-.2 1.3-.2.3 0 .7 0 1 .2.2-.1.3-.3.5-.4 0 0 0-.1.1-.2-.4-.2-.9-.3-1.4-.3h-.6c-.7 0-1.5.2-2.1.6-.6.4-1 1-1 1.6v.6c0 .2.2.4.4.4h1.7zm1.3-3.8c.9 0 1.7-.7 1.7-1.7 0-2.2-3.3-2.2-3.4 0 0 .9.8 1.7 1.7 1.7zm0-2.5c.5 0 .9.4.9.9 0 1.2-1.8 1.2-1.9 0 0-.5.5-.9 1-.9z"/><path d="M7.6 7.4c-.1 0-.2-.1-.4-.2h-1c-.7 0-1.5.2-2.1.6-.6.4-1 1-1 1.6v.6c0 .2.2.4.4.4H6c0-.2-.3-1.4.5-2.4.3-.3.6-.5.9-.7zM18 18.1c.8 0 1.4-.6 1.4-1.4 0-1.8-2.7-1.8-2.8 0 0 .8.6 1.4 1.4 1.4zm1.9.9c-.5-.3-1.1-.5-1.7-.5h-.5c-.6 0-1.2.2-1.7.5s-.8.8-.8 1.3v.5c0 .2.1.3.3.3h4.9c.2 0 .3-.2.3-.3v-.5c0-.5-.3-1-.8-1.3zM13.2 21.1V7.4M12.4 21.1V10.6l-1.9 1.9-1.2-1.2 3.9-3.9 3.9 3.9-1.2 1.2-1.9-1.9v10.5h-1.7z"/></g></svg>