<svg width="24" height="24" viewBox="0 0 24 24" fill="none" xmlns="http://www.w3.org/2000/svg" preserveAspectRatio="xMinYMid meet"><path d="M7.349 4.278c-.086-2.372-3.541-2.372-3.644 0 0 .98.826 1.788 1.839 1.788a1.79 1.79 0 0 0 1.804-1.788zM8.025 10.088c.212-.206.429-.406.652-.602.047-.065.103-.125.152-.19H6.692v-.223c.051-.722.687-1.169 1.323-1.409a3.907 3.907 0 0 1 1.392-.258c.36 0 .726.066 1.082.17.175-.157.353-.307.541-.449.048-.078.094-.16.143-.237-.475-.191-.98-.3-1.493-.311h-.617a4.492 4.492 0 0 0-2.235.687c-.688.448-1.032 1.066-1.032 1.737v.653c0 .241.172.412.412.429h1.815zM9.374 6.082a1.79 1.79 0 0 0 1.805-1.788c-.086-2.372-3.541-2.372-3.644 0-.001.981.823 1.788 1.838 1.788zm.035-2.732c.533.017.945.429.98.945-.069 1.306-1.977 1.306-2.028 0 .016-.533.498-.963 1.048-.945z" fill="#212529"/><path d="M7.209 6.788a1.153 1.153 0 0 0-.406-.171 3.89 3.89 0 0 0-.397-.035h-.619a4.498 4.498 0 0 0-2.235.687c-.687.446-1.031 1.065-1.031 1.737v.653c0 .241.172.412.412.429h2.712c-.043-.2-.307-1.527.554-2.558.34-.406.738-.625 1.01-.742z" fill="#212529"/><g fill="#212529"><path d="M18.274 18.206c.832 0 1.498-.653 1.498-1.485-.077-1.958-2.932-1.958-3.02 0-.001.806.678 1.485 1.523 1.485zM20.387 19.178a3.634 3.634 0 0 0-1.844-.576h-.486a3.64 3.64 0 0 0-1.844.576c-.563.372-.858.883-.858 1.434v.537c0 .192.141.346.346.359h5.197a.355.355 0 0 0 .346-.359v-.537c0-.55-.296-1.062-.858-1.434z"/></g><g fill="#212529"><path d="M13.179 21.45V6.823M12.292 21.45V10.218l-2.07 2.07-1.253-1.254 4.21-4.211 4.21 4.211-1.254 1.254-2.07-2.07V21.45h-1.773z"/></g></svg>